<mxfile host="app.diagrams.net" modified="2020-07-07T10:01:22.136Z" agent="5.0 (Macintosh)" etag="h_cF25KtWXZvZ-XMcQTn" version="13.3.9" type="github">
  <diagram id="S24CGJO7lzemPNCgiepG" name="Page-1">
    <mxGraphModel dx="1303" dy="1835" grid="1" gridSize="10" guides="1" tooltips="1" connect="1" arrows="1" fold="1" page="1" pageScale="1" pageWidth="850" pageHeight="1100" math="0" shadow="0">
      <root>
        <mxCell id="0" />
        <mxCell id="1" parent="0" />
        <mxCell id="tqCXdyYsHLN2qKY4FOlf-62" value="" style="rounded=1;whiteSpace=wrap;html=1;fontColor=#FF0000;" vertex="1" parent="1">
          <mxGeometry x="130" y="-750" width="650" height="110" as="geometry" />
        </mxCell>
        <mxCell id="tqCXdyYsHLN2qKY4FOlf-50" value="" style="rounded=1;whiteSpace=wrap;html=1;fontColor=#FF0000;" vertex="1" parent="1">
          <mxGeometry x="128" y="-610" width="680" height="200" as="geometry" />
        </mxCell>
        <mxCell id="tqCXdyYsHLN2qKY4FOlf-25" style="edgeStyle=orthogonalEdgeStyle;rounded=0;orthogonalLoop=1;jettySize=auto;html=1;entryX=0.371;entryY=1;entryDx=0;entryDy=0;entryPerimeter=0;" edge="1" parent="1" source="tqCXdyYsHLN2qKY4FOlf-2" target="tqCXdyYsHLN2qKY4FOlf-24">
          <mxGeometry relative="1" as="geometry" />
        </mxCell>
        <mxCell id="tqCXdyYsHLN2qKY4FOlf-2" value="" style="dashed=0;outlineConnect=0;html=1;align=center;labelPosition=center;verticalLabelPosition=bottom;verticalAlign=top;shape=mxgraph.weblogos.jquery;fillColor=#0BB9EA;gradientColor=#032F80" vertex="1" parent="1">
          <mxGeometry x="372.1" y="280" width="86.89999999999998" height="72" as="geometry" />
        </mxCell>
        <mxCell id="tqCXdyYsHLN2qKY4FOlf-22" value="JQuery" style="text;html=1;align=center;verticalAlign=middle;resizable=0;points=[];autosize=1;" vertex="1" parent="tqCXdyYsHLN2qKY4FOlf-2">
          <mxGeometry x="36.89999999999998" y="52" width="50" height="20" as="geometry" />
        </mxCell>
        <mxCell id="tqCXdyYsHLN2qKY4FOlf-4" value="" style="shape=image;html=1;verticalAlign=top;verticalLabelPosition=bottom;labelBackgroundColor=#ffffff;imageAspect=0;aspect=fixed;image=https://cdn4.iconfinder.com/data/icons/logos-and-brands/512/21_Angular_logo_logos-128.png" vertex="1" parent="1">
          <mxGeometry x="490" y="-560.73" width="128" height="128" as="geometry" />
        </mxCell>
        <mxCell id="tqCXdyYsHLN2qKY4FOlf-6" value="" style="shape=image;html=1;verticalAlign=top;verticalLabelPosition=bottom;labelBackgroundColor=#ffffff;imageAspect=0;aspect=fixed;image=https://cdn4.iconfinder.com/data/icons/logos-3/600/React.js_logo-128.png" vertex="1" parent="1">
          <mxGeometry x="295.8" y="-550" width="128" height="128" as="geometry" />
        </mxCell>
        <mxCell id="tqCXdyYsHLN2qKY4FOlf-9" value="" style="shape=image;verticalLabelPosition=bottom;labelBackgroundColor=#ffffff;verticalAlign=top;aspect=fixed;imageAspect=0;image=https://www.webdatarocks.com/wd_uploads/2019/04/768px-Vue.js_Logo_2.svg.png;" vertex="1" parent="1">
          <mxGeometry x="140" y="-529.27" width="100" height="86.54" as="geometry" />
        </mxCell>
        <mxCell id="tqCXdyYsHLN2qKY4FOlf-10" value="" style="shape=image;html=1;verticalAlign=top;verticalLabelPosition=bottom;labelBackgroundColor=#ffffff;imageAspect=0;aspect=fixed;image=https://cdn4.iconfinder.com/data/icons/logos-and-brands/512/111_Ember_logo_logos-128.png" vertex="1" parent="1">
          <mxGeometry x="680" y="-560.73" width="128" height="128" as="geometry" />
        </mxCell>
        <mxCell id="tqCXdyYsHLN2qKY4FOlf-48" style="edgeStyle=orthogonalEdgeStyle;rounded=0;orthogonalLoop=1;jettySize=auto;html=1;entryX=0.642;entryY=1.013;entryDx=0;entryDy=0;entryPerimeter=0;fontColor=#FF0000;" edge="1" parent="1" source="tqCXdyYsHLN2qKY4FOlf-11" target="tqCXdyYsHLN2qKY4FOlf-13">
          <mxGeometry relative="1" as="geometry" />
        </mxCell>
        <mxCell id="tqCXdyYsHLN2qKY4FOlf-49" style="edgeStyle=orthogonalEdgeStyle;rounded=0;orthogonalLoop=1;jettySize=auto;html=1;entryX=0.583;entryY=1.025;entryDx=0;entryDy=0;entryPerimeter=0;fontColor=#FF0000;" edge="1" parent="1" source="tqCXdyYsHLN2qKY4FOlf-11" target="tqCXdyYsHLN2qKY4FOlf-17">
          <mxGeometry relative="1" as="geometry" />
        </mxCell>
        <mxCell id="tqCXdyYsHLN2qKY4FOlf-11" value="HTML + CSS + JS" style="rounded=1;whiteSpace=wrap;html=1;fillColor=#f5f5f5;strokeColor=#666666;fontColor=#333333;" vertex="1" parent="1">
          <mxGeometry x="290" y="510" width="240" height="60" as="geometry" />
        </mxCell>
        <mxCell id="tqCXdyYsHLN2qKY4FOlf-18" style="edgeStyle=orthogonalEdgeStyle;rounded=0;orthogonalLoop=1;jettySize=auto;html=1;exitX=1;exitY=0;exitDx=0;exitDy=0;" edge="1" parent="1" source="tqCXdyYsHLN2qKY4FOlf-13">
          <mxGeometry relative="1" as="geometry">
            <mxPoint x="410" y="352" as="targetPoint" />
            <Array as="points">
              <mxPoint x="410" y="412" />
              <mxPoint x="410" y="352" />
            </Array>
          </mxGeometry>
        </mxCell>
        <mxCell id="tqCXdyYsHLN2qKY4FOlf-20" value="Generic JS to manipulate html" style="edgeLabel;html=1;align=center;verticalAlign=middle;resizable=0;points=[];fontStyle=1;fontColor=#FF0000;" vertex="1" connectable="0" parent="tqCXdyYsHLN2qKY4FOlf-18">
          <mxGeometry x="0.4081" y="4" relative="1" as="geometry">
            <mxPoint x="0.37" y="22.3" as="offset" />
          </mxGeometry>
        </mxCell>
        <mxCell id="tqCXdyYsHLN2qKY4FOlf-13" value="website&lt;br&gt;self-CSS&lt;br&gt;self-JS" style="ellipse;whiteSpace=wrap;html=1;fillColor=#fff2cc;strokeColor=#d6b656;" vertex="1" parent="1">
          <mxGeometry x="130" y="400" width="120" height="80" as="geometry" />
        </mxCell>
        <mxCell id="tqCXdyYsHLN2qKY4FOlf-15" value="" style="shape=flexArrow;endArrow=classic;html=1;fillColor=#dae8fc;strokeColor=#6c8ebf;" edge="1" parent="1">
          <mxGeometry width="50" height="50" relative="1" as="geometry">
            <mxPoint x="60" y="560" as="sourcePoint" />
            <mxPoint x="60" y="-1060" as="targetPoint" />
          </mxGeometry>
        </mxCell>
        <mxCell id="tqCXdyYsHLN2qKY4FOlf-19" style="edgeStyle=orthogonalEdgeStyle;rounded=0;orthogonalLoop=1;jettySize=auto;html=1;exitX=0;exitY=0;exitDx=0;exitDy=0;" edge="1" parent="1" source="tqCXdyYsHLN2qKY4FOlf-17">
          <mxGeometry relative="1" as="geometry">
            <mxPoint x="410" y="350" as="targetPoint" />
          </mxGeometry>
        </mxCell>
        <mxCell id="tqCXdyYsHLN2qKY4FOlf-17" value="website&lt;br&gt;self-CSS&lt;br&gt;self-JS" style="ellipse;whiteSpace=wrap;html=1;fillColor=#fff2cc;strokeColor=#d6b656;" vertex="1" parent="1">
          <mxGeometry x="568" y="400" width="120" height="80" as="geometry" />
        </mxCell>
        <mxCell id="tqCXdyYsHLN2qKY4FOlf-23" value="" style="dashed=0;outlineConnect=0;html=1;align=center;labelPosition=center;verticalLabelPosition=bottom;verticalAlign=top;shape=mxgraph.weblogos.jquery;fillColor=#0BB9EA;gradientColor=#032F80" vertex="1" parent="1">
          <mxGeometry x="363.1" y="155" width="96.89999999999998" height="72" as="geometry" />
        </mxCell>
        <mxCell id="tqCXdyYsHLN2qKY4FOlf-24" value="JQuery+UI" style="text;html=1;align=center;verticalAlign=middle;resizable=0;points=[];autosize=1;" vertex="1" parent="tqCXdyYsHLN2qKY4FOlf-23">
          <mxGeometry x="26.899999999999977" y="52" width="70" height="20" as="geometry" />
        </mxCell>
        <mxCell id="tqCXdyYsHLN2qKY4FOlf-26" value="UI created by JS" style="text;html=1;align=center;verticalAlign=middle;resizable=0;points=[];autosize=1;" vertex="1" parent="1">
          <mxGeometry x="410" y="250" width="100" height="20" as="geometry" />
        </mxCell>
        <mxCell id="tqCXdyYsHLN2qKY4FOlf-32" style="edgeStyle=orthogonalEdgeStyle;rounded=0;orthogonalLoop=1;jettySize=auto;html=1;exitX=1;exitY=0.5;exitDx=0;exitDy=0;" edge="1" parent="1" source="tqCXdyYsHLN2qKY4FOlf-30" target="tqCXdyYsHLN2qKY4FOlf-23">
          <mxGeometry relative="1" as="geometry">
            <Array as="points">
              <mxPoint x="412" y="115" />
            </Array>
          </mxGeometry>
        </mxCell>
        <mxCell id="tqCXdyYsHLN2qKY4FOlf-35" style="edgeStyle=orthogonalEdgeStyle;rounded=0;orthogonalLoop=1;jettySize=auto;html=1;exitX=0.5;exitY=0;exitDx=0;exitDy=0;" edge="1" parent="1" source="tqCXdyYsHLN2qKY4FOlf-30">
          <mxGeometry relative="1" as="geometry">
            <mxPoint x="430" y="-38" as="targetPoint" />
            <Array as="points">
              <mxPoint x="200" y="18" />
              <mxPoint x="430" y="18" />
            </Array>
          </mxGeometry>
        </mxCell>
        <mxCell id="tqCXdyYsHLN2qKY4FOlf-30" value="website&lt;br&gt;self-CSS&lt;br&gt;" style="ellipse;whiteSpace=wrap;html=1;fillColor=#f8cecc;strokeColor=#b85450;" vertex="1" parent="1">
          <mxGeometry x="140" y="75" width="120" height="80" as="geometry" />
        </mxCell>
        <mxCell id="tqCXdyYsHLN2qKY4FOlf-33" style="edgeStyle=orthogonalEdgeStyle;rounded=0;orthogonalLoop=1;jettySize=auto;html=1;exitX=0;exitY=0.5;exitDx=0;exitDy=0;" edge="1" parent="1" source="tqCXdyYsHLN2qKY4FOlf-31" target="tqCXdyYsHLN2qKY4FOlf-23">
          <mxGeometry relative="1" as="geometry">
            <mxPoint x="620" y="180" as="sourcePoint" />
            <Array as="points">
              <mxPoint x="412" y="115" />
            </Array>
          </mxGeometry>
        </mxCell>
        <mxCell id="tqCXdyYsHLN2qKY4FOlf-42" value="based on" style="edgeLabel;html=1;align=center;verticalAlign=middle;resizable=0;points=[];" vertex="1" connectable="0" parent="tqCXdyYsHLN2qKY4FOlf-33">
          <mxGeometry x="0.5413" y="2" relative="1" as="geometry">
            <mxPoint as="offset" />
          </mxGeometry>
        </mxCell>
        <mxCell id="tqCXdyYsHLN2qKY4FOlf-38" style="edgeStyle=orthogonalEdgeStyle;rounded=0;orthogonalLoop=1;jettySize=auto;html=1;entryX=0.453;entryY=1.011;entryDx=0;entryDy=0;entryPerimeter=0;" edge="1" parent="1" source="tqCXdyYsHLN2qKY4FOlf-31" target="tqCXdyYsHLN2qKY4FOlf-36">
          <mxGeometry relative="1" as="geometry">
            <Array as="points">
              <mxPoint x="650" y="18" />
              <mxPoint x="431" y="18" />
            </Array>
          </mxGeometry>
        </mxCell>
        <mxCell id="tqCXdyYsHLN2qKY4FOlf-31" value="website&lt;br&gt;self-CSS" style="ellipse;whiteSpace=wrap;html=1;fillColor=#f8cecc;strokeColor=#b85450;" vertex="1" parent="1">
          <mxGeometry x="590" y="75" width="120" height="80" as="geometry" />
        </mxCell>
        <mxCell id="tqCXdyYsHLN2qKY4FOlf-40" value="" style="group" vertex="1" connectable="0" parent="1">
          <mxGeometry x="175" y="-220" width="565" height="180" as="geometry" />
        </mxCell>
        <mxCell id="tqCXdyYsHLN2qKY4FOlf-37" value="" style="group" vertex="1" connectable="0" parent="tqCXdyYsHLN2qKY4FOlf-40">
          <mxGeometry width="565" height="180" as="geometry" />
        </mxCell>
        <mxCell id="tqCXdyYsHLN2qKY4FOlf-36" value="" style="rounded=1;whiteSpace=wrap;html=1;" vertex="1" parent="tqCXdyYsHLN2qKY4FOlf-37">
          <mxGeometry width="565" height="180" as="geometry" />
        </mxCell>
        <mxCell id="tqCXdyYsHLN2qKY4FOlf-5" value="SematicUI" style="shape=image;verticalLabelPosition=bottom;labelBackgroundColor=#ffffff;verticalAlign=top;aspect=fixed;imageAspect=0;image=https://semantic-ui.com/images/logo.png;" vertex="1" parent="tqCXdyYsHLN2qKY4FOlf-37">
          <mxGeometry x="385" y="24" width="128" height="128" as="geometry" />
        </mxCell>
        <mxCell id="tqCXdyYsHLN2qKY4FOlf-7" value="Bootstrap" style="shape=image;verticalLabelPosition=bottom;labelBackgroundColor=#ffffff;verticalAlign=top;aspect=fixed;imageAspect=0;image=https://miro.medium.com/max/300/1*X7iqYKdcqxKlxZjtmQ4yAw.png;" vertex="1" parent="tqCXdyYsHLN2qKY4FOlf-37">
          <mxGeometry x="183.8" y="40" width="135" height="112" as="geometry" />
        </mxCell>
        <mxCell id="tqCXdyYsHLN2qKY4FOlf-8" value="Foundation UI" style="shape=image;verticalLabelPosition=bottom;labelBackgroundColor=#ffffff;verticalAlign=top;aspect=fixed;imageAspect=0;image=https://miro.medium.com/max/244/1*8aq5h7volMPSqJZKroGN0g.png;" vertex="1" parent="tqCXdyYsHLN2qKY4FOlf-37">
          <mxGeometry x="5" y="20" width="110" height="138" as="geometry" />
        </mxCell>
        <mxCell id="tqCXdyYsHLN2qKY4FOlf-39" value="CSS Framework(less interactive, short js)" style="text;html=1;align=center;verticalAlign=middle;resizable=0;points=[];autosize=1;fontStyle=1" vertex="1" parent="tqCXdyYsHLN2qKY4FOlf-37">
          <mxGeometry x="126.3" y="20" width="250" height="20" as="geometry" />
        </mxCell>
        <mxCell id="tqCXdyYsHLN2qKY4FOlf-41" value="Beatiful CSS template " style="text;html=1;align=center;verticalAlign=middle;resizable=0;points=[];autosize=1;fontStyle=1;fontColor=#FF0000;" vertex="1" parent="1">
          <mxGeometry x="363.1" y="30" width="140" height="20" as="geometry" />
        </mxCell>
        <mxCell id="tqCXdyYsHLN2qKY4FOlf-43" style="edgeStyle=orthogonalEdgeStyle;rounded=0;orthogonalLoop=1;jettySize=auto;html=1;exitX=1;exitY=0.5;exitDx=0;exitDy=0;" edge="1" parent="1" source="tqCXdyYsHLN2qKY4FOlf-44">
          <mxGeometry relative="1" as="geometry">
            <mxPoint x="432" y="-242" as="targetPoint" />
            <Array as="points">
              <mxPoint x="432" y="-282" />
            </Array>
          </mxGeometry>
        </mxCell>
        <mxCell id="tqCXdyYsHLN2qKY4FOlf-54" style="edgeStyle=orthogonalEdgeStyle;rounded=0;orthogonalLoop=1;jettySize=auto;html=1;exitX=1;exitY=0;exitDx=0;exitDy=0;fontColor=#FF0000;" edge="1" parent="1" source="tqCXdyYsHLN2qKY4FOlf-44">
          <mxGeometry relative="1" as="geometry">
            <mxPoint x="468" y="-410" as="targetPoint" />
            <Array as="points">
              <mxPoint x="262" y="-370" />
              <mxPoint x="468" y="-370" />
            </Array>
          </mxGeometry>
        </mxCell>
        <mxCell id="tqCXdyYsHLN2qKY4FOlf-44" value="website" style="ellipse;whiteSpace=wrap;html=1;fillColor=#e1d5e7;strokeColor=#9673a6;" vertex="1" parent="1">
          <mxGeometry x="160" y="-322" width="120" height="80" as="geometry" />
        </mxCell>
        <mxCell id="tqCXdyYsHLN2qKY4FOlf-45" style="edgeStyle=orthogonalEdgeStyle;rounded=0;orthogonalLoop=1;jettySize=auto;html=1;exitX=0;exitY=0.5;exitDx=0;exitDy=0;" edge="1" parent="1" source="tqCXdyYsHLN2qKY4FOlf-47">
          <mxGeometry relative="1" as="geometry">
            <mxPoint x="640" y="-217" as="sourcePoint" />
            <mxPoint x="432" y="-242" as="targetPoint" />
            <Array as="points">
              <mxPoint x="432" y="-282" />
            </Array>
          </mxGeometry>
        </mxCell>
        <mxCell id="tqCXdyYsHLN2qKY4FOlf-46" value="based on" style="edgeLabel;html=1;align=center;verticalAlign=middle;resizable=0;points=[];" vertex="1" connectable="0" parent="tqCXdyYsHLN2qKY4FOlf-45">
          <mxGeometry x="0.5413" y="2" relative="1" as="geometry">
            <mxPoint as="offset" />
          </mxGeometry>
        </mxCell>
        <mxCell id="tqCXdyYsHLN2qKY4FOlf-55" style="edgeStyle=orthogonalEdgeStyle;rounded=0;orthogonalLoop=1;jettySize=auto;html=1;exitX=0;exitY=0;exitDx=0;exitDy=0;fontColor=#FF0000;" edge="1" parent="1" source="tqCXdyYsHLN2qKY4FOlf-47">
          <mxGeometry relative="1" as="geometry">
            <mxPoint x="470" y="-410" as="targetPoint" />
            <Array as="points">
              <mxPoint x="628" y="-370" />
              <mxPoint x="470" y="-370" />
            </Array>
          </mxGeometry>
        </mxCell>
        <mxCell id="tqCXdyYsHLN2qKY4FOlf-47" value="website" style="ellipse;whiteSpace=wrap;html=1;fillColor=#e1d5e7;strokeColor=#9673a6;" vertex="1" parent="1">
          <mxGeometry x="610" y="-322" width="120" height="80" as="geometry" />
        </mxCell>
        <mxCell id="tqCXdyYsHLN2qKY4FOlf-53" value="JS framework(more interactive)&lt;br&gt;even UI is written with JS " style="text;html=1;align=center;verticalAlign=middle;resizable=0;points=[];autosize=1;fontColor=#FF0000;fontStyle=1" vertex="1" parent="1">
          <mxGeometry x="330" y="-595" width="190" height="30" as="geometry" />
        </mxCell>
        <mxCell id="tqCXdyYsHLN2qKY4FOlf-56" value="write whole website with JS" style="text;html=1;align=center;verticalAlign=middle;resizable=0;points=[];autosize=1;fontColor=#FF0000;fontStyle=1" vertex="1" parent="1">
          <mxGeometry x="365" y="-370" width="170" height="20" as="geometry" />
        </mxCell>
        <mxCell id="tqCXdyYsHLN2qKY4FOlf-57" value="vue-bootstrap" style="rounded=1;whiteSpace=wrap;html=1;fontStyle=1" vertex="1" parent="1">
          <mxGeometry x="170" y="-720" width="120" height="60" as="geometry" />
        </mxCell>
        <mxCell id="tqCXdyYsHLN2qKY4FOlf-58" value="react-bootstrap" style="rounded=1;whiteSpace=wrap;html=1;fontStyle=1" vertex="1" parent="1">
          <mxGeometry x="403.1" y="-720" width="120" height="60" as="geometry" />
        </mxCell>
        <mxCell id="tqCXdyYsHLN2qKY4FOlf-59" value="angular-bootstrap" style="rounded=1;whiteSpace=wrap;html=1;fontStyle=1" vertex="1" parent="1">
          <mxGeometry x="620" y="-720" width="120" height="60" as="geometry" />
        </mxCell>
        <mxCell id="tqCXdyYsHLN2qKY4FOlf-63" style="edgeStyle=orthogonalEdgeStyle;rounded=0;orthogonalLoop=1;jettySize=auto;html=1;entryX=0.5;entryY=1;entryDx=0;entryDy=0;fontColor=#000000;" edge="1" parent="1" source="tqCXdyYsHLN2qKY4FOlf-60" target="tqCXdyYsHLN2qKY4FOlf-61">
          <mxGeometry relative="1" as="geometry" />
        </mxCell>
        <mxCell id="tqCXdyYsHLN2qKY4FOlf-60" value="JS wrapper CSS framework" style="text;html=1;align=center;verticalAlign=middle;resizable=0;points=[];autosize=1;fontColor=#FF0000;fontStyle=1" vertex="1" parent="1">
          <mxGeometry x="370" y="-750" width="170" height="20" as="geometry" />
        </mxCell>
        <mxCell id="tqCXdyYsHLN2qKY4FOlf-61" value="website" style="ellipse;whiteSpace=wrap;html=1;fillColor=#ffcc99;strokeColor=#36393d;" vertex="1" parent="1">
          <mxGeometry x="395" y="-880" width="120" height="80" as="geometry" />
        </mxCell>
        <mxCell id="tqCXdyYsHLN2qKY4FOlf-66" value="&lt;div style=&quot;font-size: 16px&quot;&gt;1. At each phase, you can also have your own css, js, or custom the component.&lt;/div&gt;&lt;div style=&quot;font-size: 16px&quot;&gt;&lt;br style=&quot;font-size: 16px&quot;&gt;&lt;/div&gt;&lt;div style=&quot;font-size: 16px&quot;&gt;2. You even do not need JS framework if your website is less interactive.&lt;/div&gt;&lt;div style=&quot;font-size: 16px&quot;&gt;&lt;br style=&quot;font-size: 16px&quot;&gt;&lt;/div&gt;&lt;div style=&quot;font-size: 16px&quot;&gt;3. Vue and React support more interactive, but if more state change and data fetching, Angular is best for you(most for enterprise apps)&lt;/div&gt;&lt;div style=&quot;font-size: 16px&quot;&gt; &lt;br style=&quot;font-size: 16px&quot;&gt;&lt;/div&gt;" style="shape=note;size=20;whiteSpace=wrap;html=1;align=left;fillColor=#cdeb8b;strokeColor=#36393d;fontStyle=0;fontSize=16;" vertex="1" parent="1">
          <mxGeometry x="155" y="-1040" width="600" height="150" as="geometry" />
        </mxCell>
      </root>
    </mxGraphModel>
  </diagram>
</mxfile>
